<svg width="23px" height="25px" viewBox="0 0 23 25" version="1.1" xmlns="http://www.w3.org/2000/svg" xmlns:xlink="http://www.w3.org/1999/xlink">
    <!-- Generator: sketchtool 56.2 (101010) - https://sketch.com -->
    <title>3FC74657-424B-44EC-8340-8600F13D775B</title>
    <desc>Created with sketchtool.</desc>
    <g id="final" stroke="none" stroke-width="1" fill="none" fill-rule="evenodd">
        <g id="Stablecoin" transform="translate(-1259.000000, -265.000000)">
            <g id="header_Developers" transform="translate(0.000000, 240.000000)">
                <g id="ic_tutorial" transform="translate(1259.000000, 25.000000)">
                    <path d="M22.6,18 C22.5599474,18.3912296 22.5188016,18.6747379 22.4765625,18.8505249 C22.3373006,19.2981771 22.2632497,19.4929454 22.2544098,19.4348297 L20.600189,19.5042717 L20.600189,18.0587158 C15.7917269,20.1344592 12.4995415,21.1344592 10.7236328,21.0587158 L0,21.0587158 L0,2.96899414 C0,1.000126 1.49414063,0 2.97912598,0 L20.8,0 C21.7941125,0 22.6,0.80588745 22.6,1.8 L22.6,18 L22.6,18 Z" id="Path" fill="#414141" fill-rule="nonzero"></path>
                    <path d="M2.000189,3.8 L2.000189,19.8531287 L20.600189,19.8531287 L20.600189,2 L3.800189,2 C2.80607645,2 2.000189,2.80588745 2.000189,3.8 Z" id="Path" fill="#FFFFFF" fill-rule="nonzero"></path>
                    <rect id="Rectangle" fill="#414141" x="4" y="1.000126" width="2" height="19"></rect>
                    <path d="M9.4,7.23727758 C9.4,6.73638246 9.55926094,6.23334956 9.87340766,5.73078307 C10.1874882,5.2283224 10.6435342,4.8141822 11.237748,4.48885301 C11.8339326,4.16244483 12.5262453,4 13.3114,4 C14.0399567,4 14.6876869,4.13548592 15.2523614,4.407891 C15.8208456,4.68213392 16.2639701,5.05841371 16.577444,5.5355253 C16.8918337,6.01403082 17.05,6.53735993 17.05,7.10035587 C17.05,7.54457043 16.9587302,7.93910083 16.7746959,8.28080148 C16.5985842,8.60779207 16.3882412,8.89149439 16.143669,9.13113063 C15.9125837,9.35755233 15.5014476,9.73526516 14.9102682,10.2644186 C14.7529312,10.4080006 14.6279609,10.533082 14.5358182,10.638803 C14.4485908,10.7388844 14.3856676,10.8276746 14.346846,10.9034442 C14.3055219,10.9840977 14.2738349,11.0638973 14.2515654,11.1429233 C14.2265681,11.2316287 14.1877079,11.3931009 14.137543,11.6159355 C14.0272155,12.2203705 13.6503785,12.55 13.0594,12.55 C12.7526492,12.55 12.4866599,12.4465522 12.2736988,12.242408 C12.0546624,12.03244 11.9488,11.7309861 11.9488,11.3521352 C11.9488,10.9200431 12.0164684,10.5410234 12.1537312,10.2160553 C12.2885268,9.89692821 12.4682259,9.61540975 12.6925378,9.37262412 C12.9049274,9.14274261 13.1887495,8.87213704 13.5447618,8.55973912 C13.8485056,8.29372692 14.0673549,8.09362725 14.1998302,7.96103401 C14.321944,7.83881162 14.4245414,7.70296302 14.5080058,7.55302184 C14.5828627,7.41854379 14.62,7.2736748 14.62,7.11476868 C14.62,6.79335288 14.5035301,6.52885828 14.2637985,6.30706047 C14.0216063,6.08298619 13.7080905,5.9705516 13.3114,5.9705516 C12.8406504,5.9705516 12.5112398,6.08350564 12.3092602,6.2992718 C12.0844975,6.53937616 11.8882161,6.90438261 11.7268743,7.38852978 C11.5369351,8.0203599 11.1460379,8.36307829 10.5826,8.36307829 C10.2533395,8.36307829 9.96833652,8.24384407 9.74100469,8.01040002 C9.51715402,7.78053071 9.4,7.52012603 9.4,7.23727758 Z M13.2339701,15.905 C12.8759964,15.905 12.5526084,15.7841636 12.2845184,15.5498693 C11.9965461,15.2981992 11.85,14.9458053 11.85,14.52699 C11.85,14.1473811 11.9884031,13.8125374 12.2549995,13.5502573 C12.5198117,13.2897324 12.8549026,13.155 13.2339701,13.155 C13.6110124,13.155 13.9437658,13.2912774 14.2048506,13.5541086 C14.465261,13.8162609 14.6,14.1494869 14.6,14.52699 C14.6,14.9401086 14.4557245,15.2898593 14.1726438,15.5431697 C13.9064651,15.7813557 13.5865144,15.905 13.2339701,15.905 Z" id="Combined-Shape" fill="#414141" fill-rule="nonzero"></path>
                    <path d="M21.7672702,21.25 C21.7672702,21.8725952 21.9311453,22.4693186 22.238545,22.9957283 C22.6278415,23.6623827 22.1469973,24.5 21.375,24.5 L3.27134052,24.5 C1.46673115,24.5 1.23989707e-12,23.0470496 1.23989707e-12,21.25 C1.23989707e-12,19.4529504 1.46673115,18 3.27134052,18 L21.375,18 C22.1469973,18 22.6278415,18.8376173 22.238545,19.5042717 C21.9311453,20.0306814 21.7672702,20.6274048 21.7672702,21.25 Z" id="Path" fill="#414141" fill-rule="nonzero"></path>
                    <path d="M19.7672702,21.25 C19.7672702,20.8245262 19.8161905,20.4057073 19.9112579,20 L3.27134052,20 C2.56709643,20 2,20.5617682 2,21.25 C2,21.9382318 2.56709643,22.5 3.27134052,22.5 L19.9112579,22.5 C19.8161905,22.0942927 19.7672702,21.6754738 19.7672702,21.25 Z" id="Path" fill="#FFFFFF" fill-rule="nonzero"></path>
                </g>
            </g>
        </g>
    </g>
</svg>
