<svg xmlns="http://www.w3.org/2000/svg" width="49" height="60" viewBox="0 0 49 60">
    <g fill="none" fill-rule="evenodd">
        <g fill="#F0B90B" fill-rule="nonzero">
            <g>
                <path d="M25.5 0L10 8.763 15.699 12 25.5 6.474 35.301 12 41 8.763zM35.301 17L41 20.399 41 27.197 31.199 32.998 31.199 44.601 25.5 48 19.801 44.601 19.801 32.998 10 27.197 10 20.399 15.699 17 25.5 22.802z" transform="translate(-1071 -253) translate(1071 253)"/>
                <path d="M39 33L39 39.667 34 43 34 36.333z" transform="translate(-1071 -253) translate(1071 253)"/>
                <path d="M34 47.35L43.485 41.675 43.485 30.325 49 27 49 45 34 54zM43 18L37 15 43 12 49 15 49 21 43 24zM20 56.667L20 50 26 53.333 32 50 32 56.667 26 60zM15 43L10 39.667 10 33 15 36.333zM26 18L20 14 26 10 32 14zM12 15L6 18 6 24 0 21 0 15 6 12z" transform="translate(-1071 -253) translate(1071 253)"/>
                <path d="M0 27L5.515 30.325 5.515 41.675 15 47.35 15 54 0 45z" transform="translate(-1071 -253) translate(1071 253)"/>
            </g>
        </g>
    </g>
</svg>
