<svg xmlns="http://www.w3.org/2000/svg" width="234" height="20" viewBox="0 0 234 20">
    <g fill="none" fill-rule="evenodd">
        <g fill="#3B3E3F" fill-rule="nonzero">
            <g>
                <g>
                    <path d="M141.897 8.568c1.075 0 1.993-.382 2.752-1.145.76-.764 1.14-1.677 1.14-2.74 0-1.066-.382-1.98-1.146-2.742-.764-.761-1.68-1.142-2.746-1.142-1.07 0-1.985.38-2.745 1.14-.76.759-1.14 1.674-1.14 2.745 0 1.079.378 1.996 1.134 2.751.755.756 1.672 1.133 2.751 1.133zm0-.622c-.884 0-1.645-.318-2.282-.955-.636-.637-.955-1.406-.955-2.307 0-.893.32-1.66.959-2.301.639-.642 1.398-.962 2.278-.962.885 0 1.643.32 2.276.962.633.64.95 1.408.95 2.3 0 .89-.315 1.655-.944 2.298-.628.644-1.389.965-2.282.965zm-.533-1.288c.165 0 .283-.031.353-.092.07-.062.104-.16.104-.295 0-.119-.033-.211-.098-.277-.066-.065-.158-.098-.276-.098h-.07v-.914h.33c.05 0 .097.013.14.038.042.025.078.061.108.108l.844 1.327.013.012c.08.127.2.19.361.19h.432c.157 0 .267-.029.33-.088.064-.06.095-.159.095-.298 0-.132-.033-.227-.098-.286-.066-.06-.17-.089-.314-.089h-.096l-.57-.901-.026-.051c-.055-.089-.11-.15-.165-.184.27-.102.473-.241.606-.42.133-.177.2-.397.2-.66 0-.372-.126-.653-.378-.844-.252-.19-.625-.285-1.12-.285h-1.587c-.16 0-.277.03-.35.089-.071.059-.107.156-.107.292 0 .122.035.218.105.285.07.068.166.102.288.102h.064v2.577h-.064c-.126 0-.224.032-.292.095-.067.064-.101.157-.101.28 0 .135.036.233.108.295.072.061.188.092.349.092h.882zm.445-2.374h-.47v-.99h.584c.228 0 .394.039.498.117.104.078.156.204.156.378 0 .173-.06.299-.178.377-.119.079-.315.118-.59.118zM9.786 15c.48 0 .824-.093 1.031-.28.208-.185.312-.49.312-.912 0-.416-.104-.717-.312-.903-.207-.186-.551-.279-1.03-.279H7.98V4.612h2.246l.064 2.181c.014.516.106.872.274 1.069.168.197.446.295.832.295.402 0 .692-.1.87-.3.18-.201.27-.527.27-.978v-.086l-.108-3.212c-.029-.637-.12-1.02-.274-1.15-.154-.128-.467-.193-.94-.193H1.977c-.473 0-.786.065-.94.194-.154.129-.242.512-.264 1.15L.655 6.792v.086c0 .444.095.768.285.972.19.204.485.306.886.306.337 0 .6-.096.79-.29.19-.193.284-.462.284-.805v-.269l.065-2.18H5.21v8.013H3.405c-.48 0-.822.091-1.026.274-.204.183-.306.485-.306.908 0 .422.104.727.312.913.207.186.548.279 1.02.279h6.381zm7.482 0c.48 0 .824-.093 1.032-.28.207-.185.311-.49.311-.912 0-.38-.098-.668-.295-.865-.197-.197-.489-.296-.876-.296h-.172V9.521c0-.701.204-1.283.613-1.745.408-.462.898-.693 1.471-.693.545 0 .93.177 1.155.532.226.354.339.99.339 1.906v3.126h-.172c-.387 0-.677.097-.87.29-.194.194-.29.484-.29.87 0 .423.102.728.306.914.204.186.546.279 1.026.279h2.664c.487 0 .832-.093 1.036-.28.204-.185.306-.49.306-.912 0-.38-.098-.668-.295-.865-.197-.197-.485-.296-.865-.296h-.182V8.641c0-1.232-.307-2.177-.919-2.836-.612-.66-1.484-.989-2.616-.989-.637 0-1.185.115-1.643.344-.458.23-.813.562-1.064 1V1.646c0-.272-.046-.458-.14-.558-.092-.1-.26-.15-.504-.15h-2.02c-.494 0-.845.093-1.052.279-.208.186-.312.49-.312.913 0 .387.102.682.306.886.204.204.496.306.876.306h.182v9.324h-.182c-.38 0-.668.099-.865.296-.197.197-.295.485-.295.865 0 .43.1.735.3.918.2.183.548.274 1.042.274h2.664zm13.015.247c.673 0 1.258-.129 1.756-.387.498-.257.919-.644 1.262-1.16v.817c0 .15.056.268.167.354.11.086.267.129.467.129h1.805c.494 0 .845-.091 1.053-.274.207-.183.311-.489.311-.918 0-.373-.102-.66-.306-.86-.204-.2-.5-.3-.886-.3h-.172V5.535c0-.143-.054-.256-.161-.338-.108-.083-.258-.124-.451-.124h-2.03c-.495 0-.842.09-1.043.269-.2.179-.3.48-.3.902 0 .387.098.68.295.881.197.2.489.3.875.3h.172v3.105c0 .716-.191 1.295-.574 1.735-.384.44-.872.66-1.467.66-.558 0-.96-.178-1.203-.536-.243-.358-.365-.978-.365-1.859V5.536c0-.143-.05-.256-.15-.338-.1-.083-.248-.124-.44-.124h-2.02c-.502 0-.854.09-1.059.269-.204.179-.306.48-.306.902 0 .387.1.68.301.881.2.2.494.3.88.3h.184v3.589c0 1.432.279 2.495.837 3.19.559.695 1.415 1.042 2.568 1.042zM42.094 15c.48 0 .824-.093 1.031-.28.208-.185.312-.49.312-.912 0-.394-.1-.69-.3-.887-.201-.197-.506-.295-.914-.295h-.129V9.521c0-.716.188-1.29.564-1.724.376-.433.861-.65 1.456-.65.558 0 .958.181 1.197.543.24.362.36.972.36 1.831v3.105h-.129c-.408 0-.714.098-.918.295-.204.197-.306.493-.306.887 0 .422.105.727.317.913.21.186.556.279 1.036.279h2.643c.487 0 .832-.093 1.036-.28.205-.185.307-.49.307-.912 0-.394-.1-.69-.301-.887-.2-.197-.501-.295-.902-.295h-.14V9.038c0-1.425-.281-2.485-.843-3.18-.563-.694-1.417-1.042-2.562-1.042-.674 0-1.266.131-1.778.392-.512.262-.933.65-1.262 1.166v-.838c0-.15-.052-.265-.156-.344-.104-.078-.256-.118-.457-.118H39.43c-.494 0-.845.093-1.053.28-.207.186-.311.49-.311.913 0 .38.1.667.3.864.201.197.495.296.881.296h.183v5.199h-.129c-.408 0-.712.098-.913.295-.2.197-.3.493-.3.887 0 .422.103.727.31.913.209.186.552.279 1.032.279h2.664zm13.186.269c.688 0 1.307-.128 1.859-.382.551-.254 1.002-.621 1.353-1.1v.751c0 .143.056.256.167.338.11.083.27.124.478.124h1.643c.487 0 .833-.093 1.037-.28.204-.185.306-.49.306-.912 0-.38-.096-.668-.29-.865-.193-.197-.483-.296-.87-.296h-.183v-11c0-.272-.044-.458-.134-.558-.09-.1-.256-.15-.5-.15h-3.34c-.494 0-.845.093-1.053.279-.208.186-.311.49-.311.913 0 .415.103.718.311.908.208.19.559.284 1.053.284h1.429v2.718c-.401-.308-.844-.546-1.327-.714-.483-.169-.98-.253-1.488-.253-1.475 0-2.69.49-3.647 1.472-.956.981-1.434 2.216-1.434 3.706 0 1.432.473 2.626 1.418 3.582.945.957 2.12 1.435 3.523 1.435zm.462-2.289c-.709 0-1.292-.263-1.75-.79-.459-.525-.688-1.204-.688-2.035 0-.809.23-1.477.693-2.003.462-.527 1.044-.79 1.745-.79.702 0 1.286.265 1.751.795.466.53.699 1.196.699 1.998 0 .824-.231 1.5-.693 2.03-.462.53-1.048.795-1.757.795zm13.069 2.289c1.468 0 2.7-.244 3.695-.73.995-.488 1.493-1.068 1.493-1.741 0-.308-.084-.56-.252-.757-.169-.197-.385-.296-.65-.296-.18 0-.702.217-1.569.65-.866.433-1.743.65-2.632.65-.888 0-1.598-.197-2.132-.59-.533-.395-.893-.99-1.08-1.784h6.93c.637 0 1.057-.079 1.261-.236.205-.158.307-.448.307-.87 0-1.325-.509-2.444-1.526-3.357-1.017-.914-2.299-1.37-3.845-1.37-1.734 0-3.143.487-4.228 1.46-1.084.975-1.627 2.224-1.627 3.75 0 1.532.543 2.786 1.627 3.76 1.085.974 2.494 1.46 4.228 1.46zm2.664-6.274h-5.79c.186-.702.517-1.226.993-1.574.476-.347 1.105-.52 1.885-.52.81 0 1.467.182 1.972.547.505.365.818.881.94 1.547zM83.06 15c.487 0 .833-.093 1.037-.28.204-.185.306-.49.306-.912 0-.416-.102-.713-.306-.892-.204-.179-.55-.269-1.037-.269h-2.535v-3.48c.638-.645 1.189-1.12 1.654-1.429.466-.308.87-.462 1.214-.462.172 0 .478.119.919.355.44.236.822.354 1.144.354.451 0 .82-.134 1.106-.402.287-.269.43-.611.43-1.026 0-.537-.208-.965-.623-1.284-.415-.319-.978-.478-1.687-.478-.78 0-1.509.179-2.186.537-.676.358-1.405.956-2.186 1.794v-1.59c0-.143-.053-.256-.16-.338-.108-.083-.259-.124-.452-.124H77.41c-.501 0-.85.09-1.047.269-.197.179-.296.48-.296.902 0 .423.102.725.306.908.204.182.55.274 1.037.274h.462v5.22h-.817c-.5 0-.854.09-1.058.269-.204.18-.306.476-.306.892 0 .422.104.727.312.913.207.186.558.279 1.052.279h6.005zm10.705.333c1.39 0 2.64-.28 3.75-.838 1.11-.558 1.664-1.153 1.664-1.783 0-.351-.095-.645-.284-.88-.19-.237-.425-.355-.704-.355-.236 0-.807.25-1.713.752-.906.5-1.735.751-2.487.751-1.103 0-1.952-.376-2.546-1.127-.594-.752-.892-1.83-.892-3.234 0-1.41.294-2.488.881-3.233.587-.745 1.432-1.117 2.535-1.117.724 0 1.29.148 1.698.445.408.298.705.786.891 1.467.115.386.253.651.414.795.16.143.392.214.693.214.422 0 .714-.086.875-.257.161-.172.242-.505.242-1l-.022-2.792c0-.452-.073-.77-.22-.956-.147-.187-.396-.28-.746-.28-.23 0-.42.054-.57.161-.15.108-.297.29-.44.548-.559-.243-1.085-.422-1.58-.537-.493-.114-.995-.172-1.503-.172-1.805 0-3.294.638-4.469 1.912-1.174 1.275-1.762 2.876-1.762 4.802 0 1.998.58 3.617 1.74 4.856 1.16 1.239 2.679 1.858 4.555 1.858zm12.048-.064c1.74 0 3.15-.487 4.232-1.461 1.082-.974 1.622-2.228 1.622-3.76 0-1.526-.54-2.775-1.622-3.75-1.081-.973-2.492-1.46-4.232-1.46-1.726 0-3.131.487-4.216 1.46-1.085.975-1.628 2.224-1.628 3.75 0 1.532.54 2.786 1.622 3.76 1.082.974 2.489 1.46 4.222 1.46zm0-2.267c-.838 0-1.527-.281-2.068-.843-.54-.562-.811-1.273-.811-2.133 0-.852.27-1.552.811-2.1.54-.548 1.23-.822 2.068-.822.845 0 1.538.274 2.079.822.54.548.81 1.248.81 2.1 0 .86-.272 1.57-.816 2.133-.544.562-1.235.843-2.073.843zM120.267 15c.487 0 .832-.093 1.036-.28.205-.185.307-.49.307-.912 0-.416-.102-.713-.307-.892-.204-.179-.55-.269-1.036-.269h-2.535v-3.48c.637-.645 1.188-1.12 1.654-1.429.465-.308.87-.462 1.214-.462.172 0 .478.119.918.355.44.236.822.354 1.144.354.451 0 .82-.134 1.107-.402.286-.269.43-.611.43-1.026 0-.537-.208-.965-.624-1.284-.415-.319-.977-.478-1.686-.478-.78 0-1.51.179-2.186.537-.677.358-1.406.956-2.186 1.794v-1.59c0-.143-.054-.256-.161-.338-.108-.083-.258-.124-.452-.124h-2.288c-.5 0-.85.09-1.047.269-.197.179-.295.48-.295.902 0 .423.102.725.306.908.204.182.55.274 1.036.274h.462v5.22h-.816c-.501 0-.854.09-1.058.269-.204.18-.306.476-.306.892 0 .422.103.727.311.913.208.186.559.279 1.053.279h6.005zm10.554.269c1.468 0 2.7-.244 3.696-.73.995-.488 1.493-1.068 1.493-1.741 0-.308-.084-.56-.253-.757-.168-.197-.385-.296-.65-.296-.179 0-.701.217-1.568.65-.866.433-1.744.65-2.632.65-.888 0-1.599-.197-2.132-.59-.534-.395-.893-.99-1.08-1.784h6.929c.637 0 1.058-.079 1.262-.236.204-.158.306-.448.306-.87 0-1.325-.508-2.444-1.525-3.357-1.017-.914-2.299-1.37-3.846-1.37-1.733 0-3.142.487-4.227 1.46-1.085.975-1.627 2.224-1.627 3.75 0 1.532.542 2.786 1.627 3.76 1.085.974 2.494 1.46 4.227 1.46zm2.664-6.274h-5.79c.187-.702.518-1.226.994-1.574.476-.347 1.105-.52 1.885-.52.81 0 1.467.182 1.971.547.505.365.819.881.94 1.547zM165.68 15c.781 0 1.385-.045 1.81-.134.427-.09.812-.235 1.156-.435.587-.344 1.038-.785 1.353-1.322.315-.537.473-1.131.473-1.783 0-.773-.183-1.409-.548-1.907-.365-.497-.938-.89-1.719-1.176.473-.272.829-.621 1.069-1.047.24-.426.36-.919.36-1.477 0-1.132-.392-1.991-1.176-2.578-.785-.588-1.932-.881-3.443-.881h-4.942c-.465 0-.802.095-1.01.284-.207.19-.311.493-.311.908 0 .387.097.68.29.881.193.2.476.3.849.3h.182v8.014h-.182c-.373 0-.656.099-.849.296-.193.197-.29.485-.29.865 0 .422.102.727.306.913.204.186.543.279 1.015.279h5.608zm-1.503-7.724h-1.45V4.57h1.783c.73 0 1.258.108 1.584.323.326.214.489.555.489 1.02 0 .494-.18.845-.542 1.053-.362.208-.983.311-1.864.311zm.16 5.436h-1.61V9.436h1.718c1.11 0 1.887.125 2.331.376.444.25.666.673.666 1.267 0 .587-.232 1.006-.698 1.257-.465.25-1.267.376-2.406.376zM179.35 15c.487 0 .832-.093 1.036-.28.204-.185.306-.49.306-.912 0-.416-.102-.713-.306-.892-.204-.179-.55-.269-1.036-.269h-2.536v-3.48c.638-.645 1.19-1.12 1.655-1.429.465-.308.87-.462 1.214-.462.171 0 .478.119.918.355.44.236.822.354 1.144.354.451 0 .82-.134 1.107-.402.286-.269.43-.611.43-1.026 0-.537-.208-.965-.624-1.284-.415-.319-.977-.478-1.686-.478-.78 0-1.51.179-2.186.537-.677.358-1.406.956-2.186 1.794v-1.59c0-.143-.054-.256-.162-.338-.107-.083-.257-.124-.45-.124h-2.289c-.501 0-.85.09-1.047.269-.197.179-.296.48-.296.902 0 .423.102.725.307.908.204.182.55.274 1.036.274h.462v5.22h-.816c-.502 0-.854.09-1.058.269-.204.18-.307.476-.307.892 0 .422.104.727.312.913.208.186.559.279 1.053.279h6.005zm10.586-11.419c.572 0 .936-.088 1.09-.263.154-.176.23-.629.23-1.359 0-.76-.085-1.239-.257-1.44-.172-.2-.52-.3-1.042-.3-.566 0-.931.125-1.096.376-.164.25-.247.834-.247 1.75 0 .495.08.824.242.989.161.165.521.247 1.08.247zM193.813 15c.487 0 .837-.093 1.048-.28.211-.185.317-.49.317-.912 0-.416-.104-.713-.312-.892-.207-.179-.558-.269-1.053-.269h-2.31v-7.11c0-.144-.053-.257-.16-.34-.108-.082-.262-.123-.462-.123h-3.234c-.494 0-.841.09-1.042.269-.2.179-.3.48-.3.902 0 .423.104.725.311.908.208.182.552.274 1.031.274h1.214v5.22h-2.31c-.5 0-.853.09-1.057.269-.204.18-.306.476-.306.892 0 .422.105.727.316.913.212.186.56.279 1.048.279h7.261zm7.965.269c.688 0 1.307-.128 1.859-.382.551-.254 1.002-.621 1.353-1.1v.751c0 .143.056.256.167.338.11.083.27.124.478.124h1.643c.487 0 .833-.093 1.037-.28.204-.185.306-.49.306-.912 0-.38-.097-.668-.29-.865-.193-.197-.483-.296-.87-.296h-.183v-11c0-.272-.044-.458-.134-.558-.09-.1-.256-.15-.5-.15h-3.34c-.494 0-.845.093-1.053.279-.208.186-.312.49-.312.913 0 .415.104.718.312.908.208.19.559.284 1.053.284h1.428v2.718c-.4-.308-.843-.546-1.326-.714-.484-.169-.98-.253-1.488-.253-1.475 0-2.69.49-3.647 1.472-.956.981-1.434 2.216-1.434 3.706 0 1.432.473 2.626 1.418 3.582.945.957 2.12 1.435 3.523 1.435zm.462-2.289c-.709 0-1.292-.263-1.75-.79-.46-.525-.688-1.204-.688-2.035 0-.809.23-1.477.693-2.003.462-.527 1.043-.79 1.745-.79.702 0 1.286.265 1.751.795.466.53.698 1.196.698 1.998 0 .824-.23 1.5-.692 2.03-.462.53-1.048.795-1.757.795zm12.359 6.328c1.883 0 3.25-.355 4.103-1.064.852-.709 1.278-1.848 1.278-3.416V7.427h.183c.38 0 .668-.1.865-.301.197-.2.295-.494.295-.88 0-.416-.1-.715-.3-.898-.201-.182-.548-.274-1.043-.274h-1.75c-.208 0-.364.038-.468.113-.104.075-.156.184-.156.328v.558c-.358-.43-.78-.746-1.267-.95-.487-.205-1.053-.307-1.697-.307-1.49 0-2.713.47-3.669 1.408s-1.434 2.134-1.434 3.588c0 1.41.457 2.565 1.37 3.464s2.089 1.348 3.529 1.348c.537 0 1.054-.07 1.552-.21.497-.14 1-.356 1.509-.65v.484c0 1.003-.195 1.697-.585 2.084-.39.387-1.098.58-2.122.58-.444 0-.927-.032-1.45-.097-.523-.064-.83-.096-.924-.096-.365 0-.659.107-.88.322-.223.215-.334.494-.334.838 0 .494.274.856.822 1.085.548.229 1.405.344 2.573.344zm.343-6.843c-.701 0-1.283-.253-1.745-.757-.462-.505-.693-1.145-.693-1.918 0-.788.23-1.436.693-1.944.462-.509 1.044-.763 1.745-.763.71 0 1.295.254 1.757.763.462.508.693 1.156.693 1.944 0 .773-.231 1.413-.693 1.918-.462.504-1.048.757-1.757.757zm13.369 2.804c1.468 0 2.7-.244 3.695-.73.995-.488 1.493-1.068 1.493-1.741 0-.308-.084-.56-.252-.757-.169-.197-.385-.296-.65-.296-.18 0-.702.217-1.569.65-.866.433-1.743.65-2.632.65-.888 0-1.598-.197-2.132-.59-.533-.395-.893-.99-1.08-1.784h6.93c.637 0 1.057-.079 1.261-.236.205-.158.307-.448.307-.87 0-1.325-.509-2.444-1.526-3.357-1.017-.914-2.299-1.37-3.845-1.37-1.734 0-3.143.487-4.228 1.46-1.084.975-1.627 2.224-1.627 3.75 0 1.532.543 2.786 1.627 3.76 1.085.974 2.494 1.46 4.228 1.46zm2.664-6.274h-5.79c.186-.702.517-1.226.993-1.574.476-.347 1.105-.52 1.885-.52.81 0 1.467.182 1.972.547.505.365.818.881.94 1.547z" transform="translate(-56 -27) translate(16 21) translate(40 6)"/>
                </g>
            </g>
        </g>
    </g>
</svg>
