<?xml version="1.0" encoding="UTF-8"?>
<svg width="200px" height="28px" viewBox="32 0 200 28" version="1.1" xmlns="http://www.w3.org/2000/svg" xmlns:xlink="http://www.w3.org/1999/xlink">
	<g id="final" stroke="none" stroke-width="1" fill="#000000" fill-rule="evenodd">
		<path d="M40.8377032,21.1604152 C41.18958,21.1234371 41.4076954,21.0625142 41.4911457,20.9791619 C41.5742946,20.8952035 41.6161704,20.7876032 41.6161704,20.6572706 L41.6161704,10.1958021 L36.834201,10.1958021 C36.6856777,10.1958021 36.5745112,10.247632 36.5007014,10.3497765 C36.4259878,10.452224 36.3708564,10.6622717 36.3338009,10.9790104 L36,10.9790104 L36,6 L36.3338009,6 C36.3708564,6.31734485 36.4259878,6.52708949 36.5007014,6.62953702 C36.5745112,6.73198454 36.6856777,6.7832083 36.834201,6.7832083 L50.5685424,6.7832083 C50.7164632,6.7832083 50.8276297,6.73198454 50.902042,6.62953702 C50.9758518,6.52708949 51.0315857,6.31734485 51.0689425,6 L51.4024421,6 L51.4024421,10.9790104 L51.0689425,10.9790104 C51.0315857,10.6622717 50.9758518,10.452224 50.902042,10.3497765 C50.8276297,10.247632 50.7164632,10.1958021 50.5685424,10.1958021 L45.786573,10.1958021 L45.786573,20.6572706 C45.786573,20.7876032 45.8281475,20.8952035 45.9115977,20.9791619 C45.995048,21.0625142 46.2125608,21.1234371 46.5650402,21.1604152 L46.5650402,21.4965522 L40.8377032,21.4965522 L40.8377032,21.1604152 Z M58.408345,20.6572706 C58.408345,20.8624687 58.4821548,20.9931045 58.6309794,21.0485716 C58.7792015,21.104645 58.964479,21.1422293 59.1868122,21.1604152 L59.1868122,21.4965522 L53.9044427,21.4965522 L53.9044427,21.1604152 C54.1270771,21.1422293 54.3120534,21.104645 54.4605767,21.0485716 C54.6087988,20.9931045 54.6829098,20.8624687 54.6829098,20.6572706 L54.6829098,10.0281882 C54.6829098,9.82329317 54.6087988,9.69235432 54.4605767,9.63628097 C54.3120534,9.58020762 54.1270771,9.54292642 53.9044427,9.52443737 L53.9044427,9.18890657 L59.1868122,9.18890657 L59.1868122,9.52443737 C58.964479,9.54292642 58.7792015,9.58020762 58.6309794,9.63628097 C58.4821548,9.69235432 58.408345,9.82329317 58.408345,10.0281882 L58.408345,13.5523225 L64.5529331,13.5523225 L64.5529331,10.0281882 C64.5529331,9.82329317 64.4785208,9.69235432 64.3306,9.63628097 C64.1817754,9.58020762 63.9967991,9.54292642 63.7741647,9.52443737 L63.7741647,9.18890657 L69.0568354,9.18890657 L69.0568354,9.52443737 C68.8345023,9.54292642 68.6486222,9.58020762 68.5007014,9.63628097 C68.352178,9.69235432 68.2783683,9.82329317 68.2783683,10.0281882 L68.2783683,20.6572706 C68.2783683,20.8624687 68.352178,20.9931045 68.5007014,21.0485716 C68.6486222,21.104645 68.8345023,21.1422293 69.0568354,21.1604152 L69.0568354,21.4965522 L63.7741647,21.4965522 L63.7741647,21.1604152 C63.9967991,21.1422293 64.1817754,21.104645 64.3306,21.0485716 C64.4785208,20.9931045 64.5529331,20.8624687 64.5529331,20.6572706 L64.5529331,16.4056983 L58.408345,16.4056983 L58.408345,20.6572706 Z M73.5050038,10.0281882 C73.5050038,9.82329317 73.4260725,9.69235432 73.2685113,9.63628097 C73.11095,9.58020762 72.9211535,9.54292642 72.6988204,9.52443737 L72.6988204,9.18890657 L77.7028215,9.18890657 L77.7028215,9.52443737 C77.6103334,9.54292642 77.508506,9.58020762 77.3973395,9.63628097 C77.2858716,9.69235432 77.230439,9.82329317 77.230439,10.0281882 L77.230439,16.8254906 C77.230439,17.5341365 77.4853087,18.0415246 77.995048,18.3494734 C78.5041848,18.6574221 79.1766068,18.8110934 80.0105066,18.8110934 C80.8447076,18.8110934 81.5162259,18.6574221 82.0262665,18.3494734 C82.5360058,18.0415246 82.7908755,17.5341365 82.7908755,16.8254906 L82.7908755,10.0281882 C82.7908755,9.82329317 82.7351415,9.69235432 82.623975,9.63628097 C82.5128084,9.58020762 82.4106798,9.54292642 82.3181917,9.52443737 L82.3181917,9.18890657 L87.3227954,9.18890657 L87.3227954,9.52443737 C87.100161,9.54292642 86.9100632,9.58020762 86.7528032,9.63628097 C86.5952419,9.69235432 86.5163106,9.82329317 86.5163106,10.0281882 L86.5163106,16.1820111 C86.5163106,16.9279382 86.4051441,17.6320376 86.182811,18.2937031 C85.9601766,18.9556717 85.5989606,19.533985 85.0982593,20.0277336 C84.5981604,20.5220884 83.9308598,20.9045995 83.0969601,21.1746609 C82.262759,21.4450254 81.2339412,21.5799045 80.0105066,21.5799045 C78.7873733,21.5799045 77.7585554,21.4450254 76.9246557,21.1746609 C76.0904546,20.9045995 75.4234553,20.5220884 74.9227539,20.0277336 C74.4223538,19.533985 74.0608366,18.9556717 73.8385035,18.2937031 C73.6161704,17.6320376 73.5050038,16.9279382 73.5050038,16.1820111 L73.5050038,10.0281882 Z M105.393837,20.6572706 C105.393837,20.8624687 105.467647,20.9931045 105.616472,21.0485716 C105.764392,21.104645 105.949971,21.1422293 106.172304,21.1604152 L106.172304,21.4965522 L101.028818,21.4965522 L101.028818,21.1604152 C101.17704,21.1604152 101.348459,21.1422293 101.543076,21.104645 C101.737693,21.0673638 101.835303,20.9652194 101.835303,20.7969993 C101.835303,20.6293855 101.631045,20.3168902 101.223133,19.8598166 C100.815523,19.4033492 100.292226,18.8389786 99.6529434,18.1673108 C99.0133592,17.4965522 98.2948437,16.7460787 97.4979994,15.9161931 C96.7008539,15.0866106 95.9130476,14.2051982 95.1348817,13.2725619 L95.0794491,13.3289384 L95.0794491,20.6572706 C95.0794491,20.8624687 95.1487399,20.9931045 95.2876227,21.0485716 C95.4265056,21.104645 95.5982263,21.1422293 95.8021823,21.1604152 L95.8021823,21.4965522 L91.047628,21.4965522 L91.047628,21.1604152 C91.2329056,21.1422293 91.3952871,21.104645 91.5344712,21.0485716 C91.6733541,20.9931045 91.7429462,20.8624687 91.7429462,20.6572706 L91.7429462,10.0281882 C91.7429462,9.82329317 91.6688351,9.69235432 91.5203118,9.63628097 C91.3717885,9.58020762 91.1958501,9.54292642 90.9924966,9.52443737 L90.9924966,9.18890657 L97.6088647,9.18890657 L97.6088647,9.52443737 C97.479321,9.54292642 97.3494761,9.58020762 97.2199324,9.63628097 C97.0900875,9.69235432 97.0253156,9.82329317 97.0253156,10.0281882 C97.0253156,10.0657725 97.1783579,10.256725 97.48384,10.6013488 C97.7899246,10.9468819 98.1836771,11.3803137 98.6657001,11.9022505 C99.1474218,12.4241873 99.6845762,13.0025006 100.278067,13.636281 C100.871257,14.2706676 101.464145,14.9047511 102.057636,15.5385315 L102.057636,10.0281882 C102.057636,9.82329317 101.983223,9.69235432 101.835303,9.63628097 C101.686779,9.58020762 101.501502,9.54292642 101.279169,9.52443737 L101.279169,9.18890657 L106.172304,9.18890657 L106.172304,9.52443737 C105.949971,9.54292642 105.764392,9.58020762 105.616472,9.63628097 C105.467647,9.69235432 105.393837,9.82329317 105.393837,10.0281882 L105.393837,20.6572706 Z M115.986292,18.8110934 C117.431759,18.8110934 118.469916,18.5552777 119.09986,18.0415246 C119.729804,17.529287 120.045227,16.6290824 120.045227,15.3427294 C120.045227,14.0557703 119.729804,13.156475 119.09986,12.643328 C118.469916,12.1307873 117.431759,11.8743654 115.986292,11.8743654 L113.984692,11.8743654 L113.984692,18.8110934 L115.986292,18.8110934 Z M110.259257,10.0281882 C110.259257,9.82329317 110.189363,9.69235432 110.050481,9.63628097 C109.911296,9.58020762 109.739877,9.54292642 109.536222,9.52443737 L109.536222,9.18890657 L117.876726,9.18890657 C118.914582,9.18890657 119.795178,9.35652042 120.517911,9.69235432 C121.240946,10.0281882 121.838654,10.4758657 122.311338,11.0347806 C122.784022,11.5943017 123.126559,12.2474805 123.340156,12.9928014 C123.552848,13.7393347 123.659797,14.5222399 123.659797,15.3427294 C123.659797,16.1632189 123.552848,16.9464272 123.340156,17.6920512 C123.126559,18.4382814 122.784022,19.0905509 122.311338,19.650072 C121.838654,20.2095931 121.240946,20.6572706 120.517911,20.9931045 C119.795178,21.3283322 118.914582,21.4965522 117.876726,21.4965522 L109.536222,21.4965522 L109.536222,21.1604152 C109.739877,21.1422293 109.911296,21.104645 110.050481,21.0485716 C110.189363,20.9931045 110.259257,20.8624687 110.259257,20.6572706 L110.259257,10.0281882 Z M138.922754,19.0350837 C139.293912,19.0350837 139.534622,18.8016974 139.645788,18.3355308 L139.979288,18.3355308 L139.979288,22 L139.701221,22 C139.608432,21.7387285 139.511123,21.5896037 139.409296,21.5523225 C139.307469,21.5147382 139.145087,21.4965522 138.922754,21.4965522 L126.523014,21.4965522 L126.523014,21.1604152 C126.72697,21.1422293 126.907427,21.104645 127.06529,21.0485716 C127.22255,20.9931045 127.301481,20.8624687 127.301481,20.6572706 L127.301481,10.0281882 C127.301481,9.82329317 127.22255,9.69235432 127.06529,9.63628097 C126.907427,9.58020762 126.72697,9.54292642 126.523014,9.52443737 L126.523014,9.18890657 L139.145087,9.18890657 C139.256856,9.18890657 139.367721,9.15162537 139.478888,9.07675987 C139.590055,9.00250057 139.645788,8.83458362 139.645788,8.57361522 L139.979288,8.57361522 L139.979288,12.3214367 L139.645788,12.3214367 C139.645788,12.0419792 139.590055,11.8601197 139.478888,11.7761612 C139.367721,11.6918997 139.256856,11.6506782 139.145087,11.6506782 L131.026916,11.6506782 L131.026916,13.9160415 L136.253552,13.9160415 C136.365019,13.9160415 136.476487,13.8739107 136.587353,13.7899523 C136.698519,13.7066 136.754554,13.5338334 136.754554,13.2725619 L137.087753,13.2725619 L137.087753,16.9088429 L136.754554,16.9088429 C136.754554,16.6481776 136.698519,16.4754111 136.587353,16.3914526 C136.476487,16.3077972 136.365019,16.2656664 136.253552,16.2656664 L131.026916,16.2656664 L131.026916,19.0350837 L138.922754,19.0350837 Z M151.850309,14.559218 C152.443499,14.559218 152.911362,14.4334318 153.254502,14.1818595 C153.597341,13.9299841 153.769062,13.5523225 153.769062,13.0491778 C153.769062,12.6199894 153.625359,12.2614231 153.338254,11.9719633 C153.050547,11.6834129 152.490195,11.5382284 151.655994,11.5382284 L147.903144,11.5382284 L147.903144,14.559218 L151.850309,14.559218 Z M144.39974,10.0281882 C144.39974,9.82329317 144.334366,9.69235432 144.205123,9.63628097 C144.075278,9.58020762 143.936396,9.54292642 143.788173,9.52443737 L143.788173,9.18890657 L152.712528,9.18890657 C154.102562,9.18890657 155.21001,9.5153444 156.034871,10.167917 C156.859131,10.8207926 157.272164,11.7901038 157.272164,13.077063 C157.272164,14.0839585 156.980239,14.8811093 156.396087,15.4682125 C155.812538,16.0559218 155.075646,16.5172388 154.186012,16.8527696 L156.660296,20.6015003 C156.753086,20.7509282 156.887148,20.8809578 157.063689,20.9931045 C157.239628,21.104645 157.429424,21.1604152 157.633681,21.1604152 L157.633681,21.4965522 L152.017511,21.4965522 L152.017511,21.1604152 C152.147055,21.1604152 152.290758,21.1373797 152.44862,21.0907024 C152.60588,21.0446314 152.684812,20.9464272 152.684812,20.7969993 C152.684812,20.704251 152.587804,20.4711677 152.392585,20.0980526 C152.19827,19.7249375 151.975937,19.3242404 151.725586,18.8950519 C151.475235,18.4664697 151.233922,18.0557703 151.002551,17.663863 C150.770578,17.2725619 150.627477,17.0209896 150.571743,16.9088429 L147.903144,16.9088429 L147.903144,20.6572706 C147.903144,20.8624687 147.972133,20.9931045 148.111317,21.0485716 C148.2502,21.104645 148.421017,21.1422293 148.625575,21.1604152 L148.625575,21.4965522 L143.843606,21.4965522 L143.843606,21.1604152 C143.954773,21.1422293 144.075278,21.104645 144.205123,21.0485716 C144.334366,20.9931045 144.39974,20.8624687 144.39974,20.6572706 L144.39974,10.0281882 Z M174.370423,12.0143972 C174.388499,11.9580208 174.402357,11.897704 174.412299,11.8322346 C174.421036,11.7667652 174.425856,11.6882625 174.425856,11.5943017 C174.425856,11.44548 174.300831,11.2960521 174.050782,11.1469273 C173.800431,10.9978025 173.46663,10.8629234 173.049379,10.7413806 C172.63273,10.620444 172.155226,10.5173903 171.617771,10.4337349 C171.080014,10.3497765 170.514541,10.3079488 169.922255,10.3079488 C169.366121,10.3079488 168.781969,10.3731151 168.170403,10.5034478 C167.558836,10.6340835 166.998183,10.8486777 166.488444,11.1469273 C165.978403,11.44548 165.561453,11.8416307 165.237293,12.3353793 C164.912831,12.8300371 164.750751,13.4313859 164.750751,14.1397287 C164.750751,14.8483746 164.912831,15.4500265 165.237293,15.9443813 C165.561453,16.4381299 165.978403,16.8348867 166.488444,17.1325301 C166.998183,17.4313859 167.558836,17.6459801 168.170403,17.7760097 C168.781969,17.9069485 169.366121,17.9718118 169.922255,17.9718118 C170.162664,17.9718118 170.542558,17.929681 171.061637,17.8460256 C171.580414,17.7623702 172.099794,17.6459801 172.618872,17.4965522 C173.137348,17.3474274 173.596174,17.1795105 173.994747,16.9928014 C174.393018,16.8066985 174.592756,16.6108964 174.592756,16.4056983 C174.592756,16.3123437 174.574078,16.2374782 174.537023,16.1820111 C174.499666,16.1256346 174.462912,16.0604683 174.425856,15.9859059 L174.731338,15.7901038 L177.595157,20.181708 L177.261658,20.37751 C177.224301,20.2844586 177.173387,20.2235357 177.108916,20.1956505 C177.043542,20.1674623 176.964912,20.1535197 176.872725,20.1535197 C176.742579,20.1535197 176.48319,20.2332348 176.093957,20.3914526 C175.705025,20.5499735 175.199202,20.7181935 174.578898,20.8952035 C173.957691,21.0725165 173.230439,21.2307343 172.396539,21.370463 C171.562338,21.5104948 170.62631,21.5799045 169.588454,21.5799045 C168.476186,21.5799045 167.373558,21.4362355 166.279667,21.1467758 C165.185777,20.8576192 164.203956,20.4011518 163.333001,19.7761612 C162.461443,19.1517769 161.757388,18.3685686 161.219932,17.4265363 C160.681874,16.4854134 160.413749,15.3894067 160.413749,14.1397287 C160.413749,12.8903539 160.681874,11.7949534 161.219932,10.8535273 C161.757388,9.91149504 162.461443,9.12858983 163.333001,8.5035993 C164.203956,7.87891187 165.185777,7.40819883 166.279667,7.09115708 C167.373558,6.77411533 168.476186,6.61559445 169.588454,6.61559445 C170.700421,6.61559445 171.659345,6.67621429 172.46583,6.79745397 C173.272315,6.91869364 173.953172,7.05387588 174.509306,7.20300068 C175.046461,7.35242858 175.463712,7.47821475 175.760758,7.58035917 C176.0566,7.6834129 176.279234,7.73433356 176.427456,7.73433356 C176.594658,7.73433356 176.73324,7.66007426 176.844708,7.51064636 L177.150792,7.59460483 L174.64849,12.2098962 L174.370423,12.0143972 Z M187.353411,11.986209 C186.834333,11.986209 186.342971,12.0662272 185.879927,12.224748 C185.416583,12.3838751 185.008671,12.6087747 184.656493,12.8991437 C184.304616,13.1895128 184.031369,13.5405016 183.836752,13.9524134 C183.641834,14.3646283 183.544225,14.8326135 183.544225,15.356672 C183.544225,15.8807305 183.641834,16.3490187 183.836752,16.7609305 C184.031369,17.1728423 184.304616,17.5235281 184.656493,17.8138971 C185.008671,18.1042661 185.416583,18.3294688 185.879927,18.4885959 C186.342971,18.6474199 186.834333,18.727135 187.353411,18.727135 C187.890867,18.727135 188.386447,18.6474199 188.840754,18.4885959 C189.294759,18.3294688 189.697851,18.1042661 190.05033,17.8138971 C190.402207,17.5235281 190.675755,17.1728423 190.870372,16.7609305 C191.064687,16.3490187 191.162297,15.8807305 191.162297,15.356672 C191.162297,14.8326135 191.064687,14.3646283 190.870372,13.9524134 C190.675755,13.5405016 190.402207,13.1895128 190.05033,12.8991437 C189.697851,12.6087747 189.294759,12.3838751 188.840754,12.224748 C188.386447,12.0662272 187.890867,11.986209 187.353411,11.986209 Z M187.353411,9.02098962 C188.224367,9.02098962 189.100142,9.14253239 189.980738,9.38470865 C190.861032,9.627188 191.657877,10.0051527 192.371873,10.5173903 C193.084966,11.0305372 193.664297,11.6882625 194.109566,12.4896567 C194.554232,13.2916572 194.776565,14.2424794 194.776565,15.3427294 C194.776565,16.4614685 194.554232,17.4171403 194.109566,18.2094415 C193.664297,19.002349 193.084966,19.650072 192.371873,20.1535197 C191.657877,20.6572706 190.861032,21.0206865 189.980738,21.2446768 C189.100142,21.468364 188.224367,21.5799045 187.353411,21.5799045 C186.481854,21.5799045 185.606379,21.468364 184.726085,21.2446768 C183.845489,21.0206865 183.048344,20.6572706 182.335251,20.1535197 C181.621555,19.650072 181.042224,19.002349 180.597558,18.2094415 C180.152892,17.4171403 179.929956,16.4614685 179.929956,15.3427294 C179.929956,14.2424794 180.152892,13.2916572 180.597558,12.4896567 C181.042224,11.6882625 181.621555,11.0305372 182.335251,10.5173903 C183.048344,10.0051527 183.845489,9.627188 184.726085,9.38470865 C185.606379,9.14253239 186.481854,9.02098962 187.353411,9.02098962 Z M205.897438,14.559218 C206.490025,14.559218 206.957889,14.4334318 207.30133,14.1818595 C207.644169,13.9299841 207.815589,13.5523225 207.815589,13.0491778 C207.815589,12.6199894 207.671885,12.2614231 207.384781,11.9719633 C207.097073,11.6834129 206.537023,11.5382284 205.70252,11.5382284 L201.949067,11.5382284 L201.949067,14.559218 L205.897438,14.559218 Z M198.446267,10.0281882 C198.446267,9.82329317 198.381194,9.69235432 198.251951,9.63628097 C198.121805,9.58020762 197.982621,9.54292642 197.8347,9.52443737 L197.8347,9.18890657 L206.759054,9.18890657 C208.149088,9.18890657 209.256536,9.5153444 210.081398,10.167917 C210.905958,10.8207926 211.318992,11.7901038 211.318992,13.077063 C211.318992,14.0839585 211.026765,14.8811093 210.443216,15.4682125 C209.859065,16.0559218 209.122473,16.5172388 208.23284,16.8527696 L210.707124,20.6015003 C210.799612,20.7509282 210.933675,20.8809578 211.110216,20.9931045 C211.286154,21.104645 211.475951,21.1604152 211.679907,21.1604152 L211.679907,21.4965522 L206.064038,21.4965522 L206.064038,21.1604152 C206.193581,21.1604152 206.337586,21.1373797 206.495147,21.0907024 C206.652407,21.0446314 206.731338,20.9464272 206.731338,20.7969993 C206.731338,20.704251 206.634331,20.4711677 206.439413,20.0980526 C206.244796,19.7249375 206.022764,19.3242404 205.772414,18.8950519 C205.522364,18.4664697 205.28075,18.0557703 205.049078,17.663863 C204.817406,17.2725619 204.674004,17.0209896 204.618571,16.9088429 L201.949067,16.9088429 L201.949067,20.6572706 C201.949067,20.8624687 202.018961,20.9931045 202.158145,21.0485716 C202.297028,21.104645 202.468146,21.1422293 202.672403,21.1604152 L202.672403,21.4965522 L197.890434,21.4965522 L197.890434,21.1604152 C198.001299,21.1422293 198.121805,21.104645 198.251951,21.0485716 C198.381194,20.9931045 198.446267,20.8624687 198.446267,20.6572706 L198.446267,10.0281882 Z M226.943466,19.0350837 C227.314021,19.0350837 227.554731,18.8016974 227.666199,18.3355308 L228,18.3355308 L228,22 L227.721933,22 C227.628842,21.7387285 227.531233,21.5896037 227.429707,21.5523225 C227.327578,21.5147382 227.165799,21.4965522 226.943466,21.4965522 L214.543424,21.4965522 L214.543424,21.1604152 C214.74738,21.1422293 214.928139,21.104645 215.0857,21.0485716 C215.242659,20.9931045 215.321892,20.8624687 215.321892,20.6572706 L215.321892,10.0281882 C215.321892,9.82329317 215.242659,9.69235432 215.0857,9.63628097 C214.928139,9.58020762 214.74738,9.54292642 214.543424,9.52443737 L214.543424,9.18890657 L227.165799,9.18890657 C227.276966,9.18890657 227.388132,9.15162537 227.4996,9.07675987 C227.610465,9.00250057 227.666199,8.83458362 227.666199,8.57361522 L228,8.57361522 L228,12.3214367 L227.666199,12.3214367 C227.666199,12.0419792 227.610465,11.8601197 227.4996,11.7761612 C227.388132,11.6918997 227.276966,11.6506782 227.165799,11.6506782 L219.047628,11.6506782 L219.047628,13.9160415 L224.274264,13.9160415 C224.385731,13.9160415 224.496597,13.8739107 224.608064,13.7899523 C224.719231,13.7066 224.774664,13.5338334 224.774664,13.2725619 L225.108163,13.2725619 L225.108163,16.9088429 L224.774664,16.9088429 C224.774664,16.6481776 224.719231,16.4754111 224.608064,16.3914526 C224.496597,16.3077972 224.385731,16.2656664 224.274264,16.2656664 L219.047628,16.2656664 L219.047628,19.0350837 L226.943466,19.0350837 Z" id="Shape" fill="#3B3E3F"></path>
	</g>
</svg>
